HIERARCHY
ROOT Hips
{
 OFFSET 0.000000 0.000000 0.000000
 CHANNELS 6 Xposition Yposition Zposition Yrotation Xrotation Zrotation
 JOINT Chest
 {
  OFFSET 0.000000 10.388337 0.005184
  CHANNELS 3 Yrotation Xrotation Zrotation
  JOINT Chest2
  {
   OFFSET 0.000000 10.458247 -0.010579
   CHANNELS 3 Yrotation Xrotation Zrotation
   JOINT Chest3
   {
    OFFSET 0.000000 10.415828 0.000000
    CHANNELS 3 Yrotation Xrotation Zrotation
    JOINT Chest4
    {
     OFFSET 0.000000 10.405206 0.000000
     CHANNELS 3 Yrotation Xrotation Zrotation
     JOINT Neck
     {
      OFFSET 0.000000 15.720090 0.000000
      CHANNELS 3 Yrotation Xrotation Zrotation
      JOINT Head
      {
       OFFSET 0.000000 9.732643 -0.022378
       CHANNELS 3 Yrotation Xrotation Zrotation
       End Site
       {
        OFFSET 0.000000 18.603619 -0.011814
       }
      }
     }
     JOINT RightCollar
     {
      OFFSET -3.167735 10.388953 0.000000
      CHANNELS 3 Yrotation Xrotation Zrotation
      JOINT RightShoulder
      {
       OFFSET -14.584825 0.000000 0.000000
       CHANNELS 3 Yrotation Xrotation Zrotation
       JOINT RightElbow
       {
        OFFSET 0.000000 -31.921689 0.000000
        CHANNELS 3 Yrotation Xrotation Zrotation
        JOINT RightWrist
        {
         OFFSET 0.000000 -25.835217 0.000000
         CHANNELS 3 Yrotation Xrotation Zrotation
         End Site
         {
          OFFSET 0.000000 -19.128920 0.000000
         }
        }
       }
      }
     }
     JOINT LeftCollar
     {
      OFFSET 3.167735 10.388953 0.000000
      CHANNELS 3 Yrotation Xrotation Zrotation
      JOINT LeftShoulder
      {
       OFFSET 14.584825 0.000000 0.000000
       CHANNELS 3 Yrotation Xrotation Zrotation
       JOINT LeftElbow
       {
        OFFSET 0.000000 -31.921689 0.000000
        CHANNELS 3 Yrotation Xrotation Zrotation
        JOINT LeftWrist
        {
         OFFSET 0.000000 -25.835217 0.000000
         CHANNELS 3 Yrotation Xrotation Zrotation
         End Site
         {
          OFFSET 0.000000 -19.128920 0.000000
         }
        }
       }
      }
     }
    }
   }
  }
 }
 JOINT RightHip
 {
  OFFSET -8.403278 -0.025659 -0.002592
  CHANNELS 3 Yrotation Xrotation Zrotation
  JOINT RightKnee
  {
   OFFSET 0.000000 -44.040977 0.002477
   CHANNELS 3 Yrotation Xrotation Zrotation
   JOINT RightAnkle
   {
    OFFSET 0.000000 -42.951162 0.004189
    CHANNELS 3 Yrotation Xrotation Zrotation
    JOINT RightToe
    {
     OFFSET 0.000000 -5.494238 12.197485
     CHANNELS 3 Yrotation Xrotation Zrotation
     End Site
     {
      OFFSET 0.000000 -1.538716 6.371628
     }
    }
   }
  }
 }
 JOINT LeftHip
 {
  OFFSET 8.403278 -0.025659 -0.002592
  CHANNELS 3 Yrotation Xrotation Zrotation
  JOINT LeftKnee
  {
   OFFSET 0.000000 -44.040977 0.002477
   CHANNELS 3 Yrotation Xrotation Zrotation
   JOINT LeftAnkle
   {
    OFFSET 0.000000 -42.951162 0.004189
    CHANNELS 3 Yrotation Xrotation Zrotation
    JOINT LeftToe
    {
     OFFSET 0.000000 -5.494238 12.197485
     CHANNELS 3 Yrotation Xrotation Zrotation
     End Site
     {
      OFFSET 0.000000 -1.538716 6.371628
     }
    }
   }
  }
 }
}
MOTION
Frames: 16
Frame Time: 0.008333
110.128771 84.478770 -51.489963 139.169677 -1.682595 4.089543 2.137021 8.853168 -3.264803 0.185765 0.440451 -0.266318 0.320604 0.763774 -0.460590 2.776343 7.258383 -4.171097 -3.428742 8.607153 2.381387 -7.873740 -19.541988 6.322783 -0.260920 -1.482640 -0.123563 2.197502 8.626730 -17.164734 -3.333286 -34.285309 36.142673 -15.044858 -25.551227 5.784319 -1.778411 0.709501 2.187340 -0.766927 -5.920620 20.503128 -22.076858 -14.511268 -6.132123 0.999668 -11.981348 6.093213 -6.834878 -15.295495 -4.157023 -26.539591 64.368525 -22.651135 -5.198543 -26.052477 -5.953273 -0.136006 3.714923 -1.236889 -7.362712 -25.802107 -0.121057 10.287630 53.765189 2.338119 -1.510035 -24.799772 -0.009216 -0.015347 -1.808503 -0.396746
110.793459 84.276610 -52.181242 139.242031 -1.643497 4.107433 1.908611 8.777512 -3.284345 0.163516 0.446392 -0.262973 0.282100 0.774137 -0.454973 2.421834 7.370886 -4.152473 -3.351913 8.587220 2.471732 -7.768555 -19.577420 6.465190 -0.385766 -1.434059 -0.363541 2.026153 9.054847 -17.075265 -3.122036 -33.962416 35.276371 -15.068953 -25.990982 5.629585 -2.076302 0.543330 2.141280 -0.545928 -6.652079 20.894878 -22.500706 -15.389909 -6.412714 1.035727 -12.005566 5.798444 -6.970101 -17.355375 -3.699509 -27.196907 65.108302 -23.676261 -5.037973 -26.187427 -5.997173 -0.064164 3.665934 -1.136044 -7.286258 -25.537989 -0.151192 10.537160 54.518431 2.589836 -1.695138 -25.619906 -0.100817 -0.008587 -1.782787 -0.255287
111.461968 84.085151 -52.857516 139.322995 -1.544957 4.187356 1.644499 8.706195 -3.390246 0.141462 0.449479 -0.260768 0.243929 0.779590 -0.451355 2.069264 7.444503 -4.157021 -3.273664 8.559950 2.579403 -7.669681 -19.624969 6.641660 -0.565087 -1.417154 -0.552750 1.653975 9.379757 -17.050214 -2.645171 -33.730791 34.381337 -15.078203 -26.426693 5.496567 -2.346225 0.359308 2.164810 -0.375918 -7.336657 21.372312 -22.716436 -16.466512 -6.922287 1.204637 -12.160411 5.620216 -7.173160 -19.489244 -3.333680 -27.812044 65.766020 -24.669773 -4.878073 -26.354230 -6.108005 -0.089811 3.712728 -1.014269 -7.071115 -25.309431 -0.263936 10.670255 55.199703 2.814726 -1.900802 -26.337400 -0.220651 0.001400 -1.791968 -0.114269
112.142923 83.907728 -53.522915 139.421978 -1.399838 4.312258 1.341928 8.646112 -3.562502 0.119884 0.449129 -0.259325 0.206588 0.779144 -0.449091 1.724540 7.474405 -4.181206 -3.196666 8.534858 2.702720 -7.580543 -19.666910 6.849157 -0.790484 -1.404794 -0.685386 1.109155 9.619548 -17.121329 -2.040388 -33.558212 33.579012 -15.095068 -26.842618 5.400652 -2.595394 0.151798 2.232551 -0.273291 -7.986859 21.965339 -22.725906 -17.693398 -7.643715 1.461783 -12.347257 5.505502 -7.394555 -21.643362 -3.044021 -28.386303 66.311895 -25.584516 -4.775087 -26.514668 -6.267352 -0.178021 3.811145 -0.894194 -6.783086 -25.100450 -0.437334 10.693127 55.812092 3.009132 -2.081421 -26.957284 -0.377487 0.011804 -1.829904 0.016083
112.850635 83.746706 -54.187247 139.561233 -1.274832 4.448639 0.989044 8.626323 -3.757796 0.098792 0.447067 -0.258437 0.170075 0.775741 -0.447794 1.384516 7.478817 -4.216085 -3.120661 8.517606 2.837431 -7.497979 -19.693166 7.078610 -1.050205 -1.375968 -0.785834 0.458639 9.815850 -17.278228 -1.491568 -33.419050 32.984961 -15.139474 -27.204616 5.348149 -2.812835 -0.078368 2.321503 -0.257879 -8.611818 22.667922 -22.588912 -19.035603 -8.509676 1.745297 -12.483004 5.395935 -7.626730 -23.719246 -2.802055 -28.919957 66.722139 -26.391233 -4.787691 -26.622294 -6.449845 -0.263198 3.901212 -0.783703 -6.523530 -24.836776 -0.626295 10.642603 56.360770 3.173154 -2.213883 -27.496597 -0.569113 0.018913 -1.887449 0.124903
113.591233 83.603237 -54.853941 139.726428 -1.188215 4.564391 0.614214 8.629636 -3.928171 0.078030 0.445487 -0.258110 0.134099 0.773121 -0.447436 1.043582 7.479749 -4.253960 -3.044493 8.508578 2.978804 -7.417391 -19.703570 7.320135 -1.323652 -1.318663 -0.886648 -0.248294 10.010929 -17.501212 -1.141223 -33.303397 32.672547 -15.225419 -27.474911 5.344029 -2.988150 -0.323603 2.413384 -0.334883 -9.224259 23.447719 -22.376337 -20.466886 -9.441177 1.995514 -12.513697 5.253838 -7.844103 -25.668394 -2.578882 -29.389711 66.983739 -27.053079 -4.884603 -26.725733 -6.637977 -0.328514 4.015722 -0.703158 -6.341766 -24.491975 -0.779162 10.544364 56.850780 3.295429 -2.289523 -27.974466 -0.783994 0.020589 -1.954117 0.204864
114.364258 83.478011 -55.526527 139.914024 -1.146658 4.649045 0.229356 8.645762 -4.049023 0.057371 0.445052 -0.258216 0.098271 0.772416 -0.447785 0.698733 7.484243 -4.290557 -2.964526 8.506365 3.122595 -7.329749 -19.701486 7.563821 -1.590833 -1.227625 -1.009639 -0.978728 10.245560 -17.778621 -1.056503 -33.221697 32.657044 -15.342436 -27.647981 5.379396 -3.116305 -0.565669 2.494092 -0.493880 -9.846792 24.277180 -22.122299 -21.961488 -10.394835 2.158090 -12.421459 5.058964 -8.024025 -27.466397 -2.378899 -29.739202 67.106201 -27.502785 -5.026095 -26.838079 -6.829642 -0.354787 4.147419 -0.656047 -6.247526 -24.054849 -0.883132 10.424254 57.278241 3.386014 -2.320491 -28.400835 -1.008699 0.017476 -2.022432 0.254025
115.163639 83.371490 -56.205120 140.117598 -1.131083 4.703690 -0.155211 8.659793 -4.113061 0.036726 0.445178 -0.258371 0.062452 0.772638 -0.448192 0.351297 7.487749 -4.322353 -2.873731 8.509148 3.264598 -7.219454 -19.691402 7.798256 -1.846676 -1.106144 -1.169470 -1.718688 10.546995 -18.101892 -1.219760 -33.196662 32.897380 -15.467911 -27.753298 5.433581 -3.197420 -0.787982 2.547979 -0.707520 -10.504786 25.145222 -21.854862 -23.495176 -11.350258 2.228990 -12.215994 4.787180 -8.147066 -29.131097 -2.220245 -29.911315 67.117026 -27.676943 -5.159004 -26.962563 -7.031448 -0.339899 4.285501 -0.641512 -6.230201 -23.545346 -0.939493 10.297340 57.639716 3.452886 -2.318695 -28.774363 -1.234414 0.010756 -2.091694 0.276149
115.980639 83.284365 -56.888166 140.332415 -1.111764 4.740593 -0.531695 8.658694 -4.128213 0.016182 0.445036 -0.258278 0.026803 0.772378 -0.448159 0.004703 7.483051 -4.347881 -2.766055 8.515344 3.402029 -7.073501 -19.677170 8.015272 -2.090892 -0.968410 -1.369846 -2.473456 10.923975 -18.461711 -1.561637 -33.249510 33.314135 -15.585966 -27.825428 5.489590 -3.240487 -0.989622 2.562338 -0.930724 -11.215308 26.040573 -21.619537 -25.047319 -12.295557 2.260799 -11.933754 4.410038 -8.222845 -30.705077 -2.114227 -29.852311 67.048830 -27.539973 -5.264358 -27.089526 -7.233158 -0.296039 4.416702 -0.659593 -6.291401 -22.997758 -0.954174 10.182389 57.931179 3.496108 -2.295938 -29.084641 -1.457076 0.001485 -2.166263 0.279941
116.806551 83.217781 -57.572681 140.554373 -1.055211 4.776409 -0.888636 8.623241 -4.109427 -0.004136 0.443978 -0.257848 -0.008454 0.770535 -0.447544 -0.338243 7.464148 -4.368130 -2.641233 8.525871 3.533270 -6.890499 -19.657316 8.211475 -2.333467 -0.828947 -1.611133 -3.281144 11.364965 -18.854960 -1.952985 -33.397864 33.829291 -15.690718 -27.889083 5.535260 -3.267547 -1.182256 2.537045 -1.118260 -11.976049 26.941686 -21.433619 -26.607256 -13.241633 2.301680 -11.617251 3.923613 -8.274062 -32.240165 -2.056733 -29.520636 66.927070 -27.088245 -5.349279 -27.201367 -7.424147 -0.235609 4.530346 -0.702550 -6.452651 -22.450621 -0.931654 10.100869 58.146384 3.506294 -2.253820 -29.319733 -1.677874 -0.008462 -2.419817 0.280476
117.638130 83.173280 -58.255722 140.774034 -0.945966 4.814860 -1.208196 8.539315 -4.065337 -0.023831 0.442007 -0.257022 -0.042632 0.767116 -0.446240 -0.670843 7.431886 -4.381880 -2.506708 8.543416 3.658574 -6.684840 -19.626119 8.390625 -2.589828 -0.687188 -1.891984 -4.177156 11.840615 -19.282594 -2.266394 -33.645722 34.384563 -15.782959 -27.962023 5.569493 -3.307226 -1.375961 2.483820 -1.253236 -12.769410 27.828000 -21.265250 -28.164642 -14.212170 2.361467 -11.289224 3.361425 -8.319989 -33.768115 -2.018502 -28.966409 66.755827 -26.405938 -5.427304 -27.269981 -7.591184 -0.157546 4.606629 -0.756316 -6.734487 -21.919844 -0.864766 10.052482 58.281555 3.457562 -2.177169 -29.474288 -1.900079 -0.017607 -3.028518 0.290213
118.479516 83.152700 -58.936281 140.980083 -0.799333 4.842252 -1.479218 8.416175 -3.994277 -0.042241 0.439640 -0.255746 -0.074578 0.763011 -0.444148 -0.981868 7.393031 -4.386107 -2.371695 8.569409 3.781692 -6.476196 -19.579638 8.564316 -2.856363 -0.537815 -2.189340 -5.132194 12.329260 -19.737883 -2.481646 -33.974083 34.927615 -15.854779 -28.046186 5.602436 -3.380198 -1.575535 2.423655 -1.351675 -13.565942 28.680738 -21.062312 -29.703096 -15.222012 2.433965 -10.965940 2.779808 -8.400327 -35.281538 -1.941229 -28.305120 66.521356 -25.643388 -5.505653 -27.273016 -7.716470 -0.048001 4.622627 -0.807196 -7.124329 -21.382655 -0.744314 10.038133 58.332560 3.354589 -2.065092 -29.553458 -2.128084 -0.025702 -3.830580 0.306684
119.337645 83.158276 -59.617575 141.175999 -0.655253 4.850210 -1.715220 8.288270 -3.904354 -0.058894 0.437324 -0.253890 -0.103477 0.758992 -0.441032 -1.263136 7.354371 -4.377424 -2.241347 8.604084 3.908469 -6.277412 -19.516357 8.746442 -3.129537 -0.395422 -2.473200 -6.125658 12.819990 -20.228099 -2.596736 -34.353064 35.432356 -15.896822 -28.123190 5.644561 -3.494144 -1.783264 2.380513 -1.444055 -14.327545 29.484032 -20.777914 -31.211739 -16.265455 2.512284 -10.659426 2.230217 -8.570368 -36.742536 -1.782307 -27.654555 66.203500 -24.945643 -5.586196 -27.157051 -7.794338 0.114008 4.517256 -0.835015 -7.586930 -20.784457 -0.584020 10.052446 58.282314 3.223438 -1.933234 -29.569602 -2.360739 -0.032995 -4.651882 0.321242
120.212124 83.192246 -60.295205 141.330008 -0.487181 4.834415 -1.891611 8.132157 -3.806733 -0.073700 0.435180 -0.251158 -0.129169 0.755276 -0.436387 -1.513003 7.319803 -4.351764 -2.117234 8.647092 4.044646 -6.094302 -19.436214 8.949020 -3.410679 -0.285789 -2.723088 -7.149563 13.316048 -20.781060 -2.619483 -34.752681 35.917435 -15.910228 -28.172367 5.697357 -3.646965 -1.999003 2.372025 -1.549931 -15.023782 30.229956 -20.397475 -32.692772 -17.312536 2.589011 -10.374055 1.740795 -8.825529 -38.170854 -1.522003 -27.100892 65.787999 -24.393712 -5.571558 -27.048560 -7.850184 0.267363 4.419089 -0.851604 -8.049290 -20.134836 -0.385097 10.074506 58.112342 3.066692 -1.802757 -29.540198 -2.585263 -0.040128 -5.475073 0.328130
121.105260 83.257373 -60.976826 141.471172 -0.329351 4.815952 -2.051887 7.984118 -3.735918 -0.086987 0.433040 -0.247197 -0.152223 0.751588 -0.429607 -1.737341 7.289595 -4.305259 -1.998329 8.697105 4.192207 -5.925906 -19.341576 9.175564 -3.688389 -0.226448 -2.923734 -8.161489 13.841838 -21.412463 -2.613385 -35.151017 36.406734 -15.907498 -28.193434 5.756136 -3.829587 -2.221061 2.405487 -1.670370 -15.640891 30.918306 -19.940905 -34.156154 -18.325410 2.659026 -10.112441 1.328460 -9.169945 -39.531958 -1.210611 -26.650946 65.277251 -23.970428 -5.494501 -26.858781 -7.889445 0.405434 4.232442 -0.851098 -8.526100 -19.386794 -0.175143 10.129735 57.790378 2.895690 -1.702008 -29.469950 -2.787869 -0.046129 -6.286341 0.325515
122.017700 83.355837 -61.659900 141.603690 -0.157384 4.783570 -2.196878 7.825165 -3.682520 -0.099274 0.430477 -0.241713 -0.173544 0.747202 -0.420194 -1.945837 7.260209 -4.235495 -1.883008 8.753236 4.348190 -5.767689 -19.234533 9.419575 -3.962882 -0.218509 -3.080138 -9.102263 14.416974 -22.102057 -2.639155 -35.528710 36.906391 -15.909250 -28.211050 5.814016 -4.030309 -2.446390 2.479093 -1.808337 -16.175162 31.556216 -19.433656 -35.607531 -19.282379 2.712969 -9.877322 1.011103 -9.586331 -40.841116 -0.852031 -26.256282 64.684848 -23.605249 -5.357758 -26.707886 -7.921939 0.479872 4.082796 -0.850285 -9.041286 -18.556990 0.062879 10.256274 57.302711 2.731277 -1.633482 -29.376123 -2.976602 -0.050892 -7.063304 0.314182
